<svg width="1916" height="1102" xmlns="http://www.w3.org/2000/svg"><g><path d="M-49,-30L-113,78L35,91Z" fill="#fff7ea" stroke="#fff7ea"/><path d="M-49,-30L35,91L42,-128Z" fill="#fff6ee" stroke="#fff6ee"/><path d="M42,-128L35,91L199,-54Z" fill="#fff1e5" stroke="#fff1e5"/><path d="M42,-128L199,-54L356,-121Z" fill="#feecd9" stroke="#feecd9"/><path d="M42,-128L356,-121L517,-127Z" fill="#fee6ce" stroke="#fee6ce"/><path d="M199,-54L35,91L241,60Z" fill="#feedd7" stroke="#feedd7"/><path d="M199,-54L241,60L399,20Z" fill="#fee7cf" stroke="#fee7cf"/><path d="M199,-54L399,20L356,-121Z" fill="#fee5cc" stroke="#fee5cc"/><path d="M356,-121L399,20L517,-127Z" fill="#fedec2" stroke="#fedec2"/><path d="M517,-127L399,20L547,39Z" fill="#fedabb" stroke="#fedabb"/><path d="M517,-127L547,39L694,-16Z" fill="#fed4b2" stroke="#fed4b2"/><path d="M517,-127L694,-16L824,-27Z" fill="#fecfaa" stroke="#fecfaa"/><path d="M517,-127L824,-27L1020,-111Z" fill="#fec8a1" stroke="#fec8a1"/><path d="M517,-127L1020,-111L1373,-113Z" fill="#fbbc93" stroke="#fbbc93"/><path d="M694,-16L547,39L725,52Z" fill="#fed0a7" stroke="#fed0a7"/><path d="M694,-16L725,52L824,-27Z" fill="#fecba4" stroke="#fecba4"/><path d="M824,-27L725,52L871,18Z" fill="#fec79c" stroke="#fec79c"/><path d="M824,-27L871,18L1020,-111Z" fill="#fcc197" stroke="#fcc197"/><path d="M1020,-111L871,18L1004,62Z" fill="#fbbd93" stroke="#fbbd93"/><path d="M1020,-111L1004,62L1124,73Z" fill="#f9b78b" stroke="#f9b78b"/><path d="M1020,-111L1124,73L1162,-78Z" fill="#f8b489" stroke="#f8b489"/><path d="M1020,-111L1162,-78L1302,-103Z" fill="#f5b087" stroke="#f5b087"/><path d="M1020,-111L1302,-103L1373,-113Z" fill="#f2ac85" stroke="#f2ac85"/><path d="M1162,-78L1124,73L1258,60Z" fill="#f4af83" stroke="#f4af83"/><path d="M1162,-78L1258,60L1302,-103Z" fill="#f2ab84" stroke="#f2ab84"/><path d="M1302,-103L1258,60L1373,-113Z" fill="#efa782" stroke="#efa782"/><path d="M1373,-113L1258,60L1457,45Z" fill="#eda480" stroke="#eda480"/><path d="M1373,-113L1457,45L1621,-59Z" fill="#dc9e81" stroke="#dc9e81"/><path d="M1373,-113L1621,-59L1894,-64Z" fill="#c89782" stroke="#c89782"/><path d="M1373,-113L1894,-64L2041,-94Z" fill="#b49082" stroke="#b49082"/><path d="M1621,-59L1457,45L1564,105Z" fill="#d39a7b" stroke="#d39a7b"/><path d="M1621,-59L1564,105L1734,39Z" fill="#c6967c" stroke="#c6967c"/><path d="M1621,-59L1734,39L1694,-43Z" fill="#c09482" stroke="#c09482"/><path d="M1621,-59L1694,-43L1894,-64Z" fill="#b99282" stroke="#b99282"/><path d="M1694,-43L1734,39L1894,-64Z" fill="#b39082" stroke="#b39082"/><path d="M1894,-64L1734,39L1932,118Z" fill="#a88b7d" stroke="#a88b7d"/><path d="M1894,-64L1932,118L2024,97Z" fill="#9a8679" stroke="#9a8679"/><path d="M1894,-64L2024,97L2041,-94Z" fill="#958584" stroke="#958584"/><path d="M2041,-94L2024,97L2067,517Z" fill="#8d7d61" stroke="#8d7d61"/><path d="M-113,78L-109,648L-91,173Z" fill="#ffe6bd" stroke="#ffe6bd"/><path d="M-113,78L-91,173L35,91Z" fill="#fff7de" stroke="#fff7de"/><path d="M35,91L-91,173L89,258Z" fill="#fff0cb" stroke="#fff0cb"/><path d="M35,91L89,258L241,60Z" fill="#ffedc6" stroke="#ffedc6"/><path d="M241,60L89,258L191,269Z" fill="#fee5b5" stroke="#fee5b5"/><path d="M241,60L191,269L435,274Z" fill="#fedea7" stroke="#fedea7"/><path d="M241,60L435,274L399,20Z" fill="#fee0b1" stroke="#fee0b1"/><path d="M399,20L435,274L553,192Z" fill="#fed89e" stroke="#fed89e"/><path d="M399,20L553,192L547,39Z" fill="#fed8aa" stroke="#fed8aa"/><path d="M547,39L553,192L725,52Z" fill="#fed19e" stroke="#fed19e"/><path d="M725,52L553,192L692,227Z" fill="#fecd8d" stroke="#fecd8d"/><path d="M725,52L692,227L836,180Z" fill="#fec786" stroke="#fec786"/><path d="M725,52L836,180L871,18Z" fill="#fec58e" stroke="#fec58e"/><path d="M871,18L836,180L1004,62Z" fill="#fcbf87" stroke="#fcbf87"/><path d="M1004,62L836,180L1016,209Z" fill="#fbba76" stroke="#fbba76"/><path d="M1004,62L1016,209L1124,73Z" fill="#f9b576" stroke="#f9b576"/><path d="M1124,73L1016,209L1177,248Z" fill="#f8ae66" stroke="#f8ae66"/><path d="M1124,73L1177,248L1258,60Z" fill="#f4ac6d" stroke="#f4ac6d"/><path d="M1258,60L1177,248L1307,194Z" fill="#f2a663" stroke="#f2a663"/><path d="M1258,60L1307,194L1375,193Z" fill="#efa465" stroke="#efa465"/><path d="M1258,60L1375,193L1457,45Z" fill="#eca26d" stroke="#eca26d"/><path d="M1457,45L1375,193L1555,166Z" fill="#df9c66" stroke="#df9c66"/><path d="M1457,45L1555,166L1564,105Z" fill="#d69a6d" stroke="#d69a6d"/><path d="M1564,105L1555,166L1681,225Z" fill="#cc9461" stroke="#cc9461"/><path d="M1564,105L1681,225L1734,39Z" fill="#c3936a" stroke="#c3936a"/><path d="M1734,39L1681,225L1872,222Z" fill="#b58c62" stroke="#b58c62"/><path d="M1734,39L1872,222L1932,118Z" fill="#a9896a" stroke="#a9896a"/><path d="M1932,118L1872,222L1993,220Z" fill="#9d805e" stroke="#9d805e"/><path d="M1932,118L1993,220L2024,97Z" fill="#968267" stroke="#968267"/><path d="M2024,97L1993,220L2028,404Z" fill="#917553" stroke="#917553"/><path d="M2024,97L2028,404L2067,517Z" fill="#8e683f" stroke="#8e683f"/><path d="M-91,173L-109,648L-23,354Z" fill="#ffd9a9" stroke="#ffd9a9"/><path d="M-91,173L-23,354L89,258Z" fill="#ffe6bb" stroke="#ffe6bb"/><path d="M89,258L-23,354L78,403Z" fill="#ffd9a5" stroke="#ffd9a5"/><path d="M89,258L78,403L191,269Z" fill="#ffd8a3" stroke="#ffd8a3"/><path d="M191,269L78,403L179,432Z" fill="#fed095" stroke="#fed095"/><path d="M191,269L179,432L391,316Z" fill="#fece8e" stroke="#fece8e"/><path d="M191,269L391,316L435,274Z" fill="#fecf90" stroke="#fecf90"/><path d="M435,274L391,316L521,372Z" fill="#fec47e" stroke="#fec47e"/><path d="M435,274L521,372L553,192Z" fill="#fec681" stroke="#fec681"/><path d="M553,192L521,372L627,383Z" fill="#febe74" stroke="#febe74"/><path d="M553,192L627,383L692,227Z" fill="#fec079" stroke="#fec079"/><path d="M692,227L627,383L845,355Z" fill="#feb365" stroke="#feb365"/><path d="M692,227L845,355L836,180Z" fill="#feb86d" stroke="#feb86d"/><path d="M836,180L845,355L1016,209Z" fill="#fdb266" stroke="#fdb266"/><path d="M1016,209L845,355L955,380Z" fill="#fca755" stroke="#fca755"/><path d="M1016,209L955,380L1081,370Z" fill="#faa14e" stroke="#faa14e"/><path d="M1016,209L1081,370L1177,248Z" fill="#f8a152" stroke="#f8a152"/><path d="M1177,248L1081,370L1235,324Z" fill="#f59847" stroke="#f59847"/><path d="M1177,248L1235,324L1307,194Z" fill="#f29c51" stroke="#f29c51"/><path d="M1307,194L1235,324L1369,399Z" fill="#ef9144" stroke="#ef9144"/><path d="M1307,194L1369,399L1375,193Z" fill="#ed944c" stroke="#ed944c"/><path d="M1375,193L1369,399L1555,166Z" fill="#e3914e" stroke="#e3914e"/><path d="M1555,166L1369,399L1614,411Z" fill="#d8833f" stroke="#d8833f"/><path d="M1555,166L1614,411L1681,225Z" fill="#c9864c" stroke="#c9864c"/><path d="M1681,225L1614,411L1710,374Z" fill="#c27a3e" stroke="#c27a3e"/><path d="M1681,225L1710,374L1865,323Z" fill="#b67a44" stroke="#b67a44"/><path d="M1681,225L1865,323L1872,222Z" fill="#af7e4f" stroke="#af7e4f"/><path d="M1872,222L1865,323L1993,220Z" fill="#a07950" stroke="#a07950"/><path d="M1993,220L1865,323L2028,404Z" fill="#996e44" stroke="#996e44"/><path d="M-23,354L-109,648L-53,582Z" fill="#ffc793" stroke="#ffc793"/><path d="M-23,354L-53,582L32,494Z" fill="#ffcb94" stroke="#ffcb94"/><path d="M-23,354L32,494L78,403Z" fill="#ffd09a" stroke="#ffd09a"/><path d="M78,403L32,494L179,432Z" fill="#ffc98d" stroke="#ffc98d"/><path d="M179,432L32,494L190,562Z" fill="#ffc182" stroke="#ffc182"/><path d="M179,432L190,562L423,565Z" fill="#feb670" stroke="#feb670"/><path d="M179,432L423,565L391,316Z" fill="#febd75" stroke="#febd75"/><path d="M391,316L423,565L521,372Z" fill="#feb96d" stroke="#feb96d"/><path d="M521,372L423,565L556,549Z" fill="#feab5c" stroke="#feab5c"/><path d="M521,372L556,549L627,383Z" fill="#feaf5e" stroke="#feaf5e"/><path d="M627,383L556,549L708,517Z" fill="#fea551" stroke="#fea551"/><path d="M627,383L708,517L845,355Z" fill="#fea753" stroke="#fea753"/><path d="M845,355L708,517L797,554Z" fill="#fe9d44" stroke="#fe9d44"/><path d="M845,355L797,554L945,504Z" fill="#fd983f" stroke="#fd983f"/><path d="M845,355L945,504L955,380Z" fill="#fc9c45" stroke="#fc9c45"/><path d="M955,380L945,504L1081,370Z" fill="#fa963e" stroke="#fa963e"/><path d="M1081,370L945,504L1172,569Z" fill="#f98a2e" stroke="#f98a2e"/><path d="M1081,370L1172,569L1235,324Z" fill="#f58b34" stroke="#f58b34"/><path d="M1235,324L1172,569L1335,509Z" fill="#f28029" stroke="#f28029"/><path d="M1235,324L1335,509L1369,399Z" fill="#ef8331" stroke="#ef8331"/><path d="M1369,399L1335,509L1425,542Z" fill="#eb7623" stroke="#eb7623"/><path d="M1369,399L1425,542L1614,411Z" fill="#de7629" stroke="#de7629"/><path d="M1614,411L1425,542L1586,532Z" fill="#d46d23" stroke="#d46d23"/><path d="M1614,411L1586,532L1668,575Z" fill="#c96722" stroke="#c96722"/><path d="M1614,411L1668,575L1710,374Z" fill="#c36c29" stroke="#c36c29"/><path d="M1710,374L1668,575L1838,487Z" fill="#b86526" stroke="#b86526"/><path d="M1710,374L1838,487L1865,323Z" fill="#af6c35" stroke="#af6c35"/><path d="M1865,323L1838,487L2028,404Z" fill="#a06633" stroke="#a06633"/><path d="M2028,404L1838,487L2067,517Z" fill="#975b28" stroke="#975b28"/><path d="M-53,582L-109,648L54,675Z" fill="#ffb785" stroke="#ffb785"/><path d="M-53,582L54,675L32,494Z" fill="#ffbb85" stroke="#ffbb85"/><path d="M32,494L54,675L190,562Z" fill="#ffb77d" stroke="#ffb77d"/><path d="M190,562L54,675L182,652Z" fill="#feae71" stroke="#feae71"/><path d="M190,562L182,652L412,628Z" fill="#fea966" stroke="#fea966"/><path d="M190,562L412,628L423,565Z" fill="#fea961" stroke="#fea961"/><path d="M423,565L412,628L493,630Z" fill="#fe9f54" stroke="#fe9f54"/><path d="M423,565L493,630L556,549Z" fill="#fea052" stroke="#fea052"/><path d="M556,549L493,630L642,713Z" fill="#fe9546" stroke="#fe9546"/><path d="M556,549L642,713L708,517Z" fill="#fe9544" stroke="#fe9544"/><path d="M708,517L642,713L797,554Z" fill="#fe913d" stroke="#fe913d"/><path d="M797,554L642,713L881,678Z" fill="#fe8634" stroke="#fe8634"/><path d="M797,554L881,678L945,504Z" fill="#fd8932" stroke="#fd8932"/><path d="M945,504L881,678L974,697Z" fill="#fc7e28" stroke="#fc7e28"/><path d="M945,504L974,697L1113,647Z" fill="#fa7b23" stroke="#fa7b23"/><path d="M945,504L1113,647L1172,569Z" fill="#f97c23" stroke="#f97c23"/><path d="M1172,569L1113,647L1307,649Z" fill="#f46e19" stroke="#f46e19"/><path d="M1172,569L1307,649L1335,509Z" fill="#f1701b" stroke="#f1701b"/><path d="M1335,509L1307,649L1425,542Z" fill="#ed6c1a" stroke="#ed6c1a"/><path d="M1425,542L1307,649L1448,726Z" fill="#e96112" stroke="#e96112"/><path d="M1425,542L1448,726L1586,532Z" fill="#dc6116" stroke="#dc6116"/><path d="M1586,532L1448,726L1615,692Z" fill="#d35713" stroke="#d35713"/><path d="M1586,532L1615,692L1668,575Z" fill="#c85a17" stroke="#c85a17"/><path d="M1668,575L1615,692L1699,660Z" fill="#c35314" stroke="#c35314"/><path d="M1668,575L1699,660L1838,487Z" fill="#b9581b" stroke="#b9581b"/><path d="M1838,487L1699,660L1901,661Z" fill="#ae5018" stroke="#ae5018"/><path d="M1838,487L1901,661L2067,517Z" fill="#9d511e" stroke="#9d511e"/><path d="M2067,517L1901,661L2037,643Z" fill="#934718" stroke="#934718"/><path d="M2067,517L2037,643L2057,778Z" fill="#8c3f16" stroke="#8c3f16"/><path d="M2067,517L2057,778L2082,1078Z" fill="#892c16" stroke="#892c16"/><path d="M-109,648L-105,784L54,675Z" fill="#ffaf87" stroke="#ffaf87"/><path d="M54,675L-105,784L56,800Z" fill="#ffa681" stroke="#ffa681"/><path d="M54,675L56,800L182,652Z" fill="#ffa676" stroke="#ffa676"/><path d="M182,652L56,800L215,866Z" fill="#fe9c70" stroke="#fe9c70"/><path d="M182,652L215,866L412,628Z" fill="#fe9c63" stroke="#fe9c63"/><path d="M412,628L215,866L412,873Z" fill="#fe8f5b" stroke="#fe8f5b"/><path d="M412,628L412,873L506,829Z" fill="#fe8a52" stroke="#fe8a52"/><path d="M412,628L506,829L493,630Z" fill="#fe934f" stroke="#fe934f"/><path d="M493,630L506,829L642,713Z" fill="#fe8a47" stroke="#fe8a47"/><path d="M642,713L506,829L646,799Z" fill="#fe8043" stroke="#fe8043"/><path d="M642,713L646,799L881,678Z" fill="#fe7f38" stroke="#fe7f38"/><path d="M881,678L646,799L861,877Z" fill="#fe7432" stroke="#fe7432"/><path d="M881,678L861,877L920,854Z" fill="#f86c2b" stroke="#f86c2b"/><path d="M881,678L920,854L974,697Z" fill="#fc7028" stroke="#fc7028"/><path d="M974,697L920,854L1142,781Z" fill="#fa6621" stroke="#fa6621"/><path d="M974,697L1142,781L1113,647Z" fill="#f96b1d" stroke="#f96b1d"/><path d="M1113,647L1142,781L1307,649Z" fill="#f46618" stroke="#f46618"/><path d="M1307,649L1142,781L1321,791Z" fill="#f15c16" stroke="#f15c16"/><path d="M1307,649L1321,791L1372,769Z" fill="#ee5813" stroke="#ee5813"/><path d="M1307,649L1372,769L1448,726Z" fill="#eb5812" stroke="#eb5812"/><path d="M1448,726L1372,769L1558,928Z" fill="#da4913" stroke="#da4913"/><path d="M1448,726L1558,928L1592,863Z" fill="#c74213" stroke="#c74213"/><path d="M1448,726L1592,863L1615,692Z" fill="#d24a13" stroke="#d24a13"/><path d="M1615,692L1592,863L1698,873Z" fill="#c14014" stroke="#c14014"/><path d="M1615,692L1698,873L1699,660Z" fill="#c24614" stroke="#c24614"/><path d="M1699,660L1698,873L1880,882Z" fill="#b03a14" stroke="#b03a14"/><path d="M1699,660L1880,882L1901,661Z" fill="#ac3f15" stroke="#ac3f15"/><path d="M1901,661L1880,882L2057,778Z" fill="#9b3415" stroke="#9b3415"/><path d="M1901,661L2057,778L2037,643Z" fill="#943c16" stroke="#943c16"/><path d="M-105,784L-77,1332L-63,988Z" fill="#ba8c8a" stroke="#ba8c8a"/><path d="M-105,784L-63,988L56,800Z" fill="#eb9c85" stroke="#eb9c85"/><path d="M56,800L-63,988L87,927Z" fill="#de947e" stroke="#de947e"/><path d="M56,800L87,927L215,866Z" fill="#e99374" stroke="#e99374"/><path d="M215,866L87,927L267,921Z" fill="#dd8b6c" stroke="#dd8b6c"/><path d="M215,866L267,921L412,873Z" fill="#e28760" stroke="#e28760"/><path d="M412,873L267,921L351,945Z" fill="#db825c" stroke="#db825c"/><path d="M412,873L351,945L518,953Z" fill="#d87b53" stroke="#d87b53"/><path d="M412,873L518,953L506,829Z" fill="#e37c4e" stroke="#e37c4e"/><path d="M506,829L518,953L646,799Z" fill="#ea7a46" stroke="#ea7a46"/><path d="M646,799L518,953L663,1020Z" fill="#d87042" stroke="#d87042"/><path d="M646,799L663,1020L774,966Z" fill="#d76a3b" stroke="#d76a3b"/><path d="M646,799L774,966L861,877Z" fill="#e46b35" stroke="#e46b35"/><path d="M861,877L774,966L934,1015Z" fill="#cf5e2d" stroke="#cf5e2d"/><path d="M861,877L934,1015L920,854Z" fill="#d85f29" stroke="#d85f29"/><path d="M920,854L934,1015L1076,1007Z" fill="#cb5624" stroke="#cb5624"/><path d="M920,854L1076,1007L1142,781Z" fill="#df591f" stroke="#df591f"/><path d="M1142,781L1076,1007L1261,950Z" fill="#d24f19" stroke="#d24f19"/><path d="M1142,781L1261,950L1321,791Z" fill="#e35116" stroke="#e35116"/><path d="M1321,791L1261,950L1390,1003Z" fill="#cb4414" stroke="#cb4414"/><path d="M1321,791L1390,1003L1372,769Z" fill="#da4912" stroke="#da4912"/><path d="M1372,769L1390,1003L1558,928Z" fill="#c34013" stroke="#c34013"/><path d="M1592,863L1558,928L1698,873Z" fill="#ad3914" stroke="#ad3914"/><path d="M1698,873L1558,928L1752,1008Z" fill="#983114" stroke="#983114"/><path d="M1698,873L1752,1008L1880,882Z" fill="#8d2d14" stroke="#8d2d14"/><path d="M1880,882L1752,1008L1846,1021Z" fill="#792615" stroke="#792615"/><path d="M1880,882L1846,1021L2025,940Z" fill="#722315" stroke="#722315"/><path d="M1880,882L2025,940L2057,778Z" fill="#7f2816" stroke="#7f2816"/><path d="M2057,778L2025,940L2082,1078Z" fill="#631e16" stroke="#631e16"/><path d="M-63,988L-77,1332L-22,1150Z" fill="#977e87" stroke="#977e87"/><path d="M-63,988L-22,1150L107,1072Z" fill="#b08480" stroke="#b08480"/><path d="M-63,988L107,1072L87,927Z" fill="#c4897c" stroke="#c4897c"/><path d="M87,927L107,1072L267,921Z" fill="#ca8670" stroke="#ca8670"/><path d="M267,921L107,1072L242,1141Z" fill="#b67c6a" stroke="#b67c6a"/><path d="M267,921L242,1141L351,945Z" fill="#c27c61" stroke="#c27c61"/><path d="M351,945L242,1141L418,1175Z" fill="#aa705c" stroke="#aa705c"/><path d="M351,945L418,1175L471,1119Z" fill="#ac6c55" stroke="#ac6c55"/><path d="M351,945L471,1119L518,953Z" fill="#c17251" stroke="#c17251"/><path d="M518,953L471,1119L663,1020Z" fill="#ba6947" stroke="#ba6947"/><path d="M663,1020L471,1119L668,1183Z" fill="#a55e43" stroke="#a55e43"/><path d="M663,1020L668,1183L842,1152Z" fill="#a25538" stroke="#a25538"/><path d="M663,1020L842,1152L774,966Z" fill="#b65a35" stroke="#b65a35"/><path d="M774,966L842,1152L934,1015Z" fill="#b6552e" stroke="#b6552e"/><path d="M934,1015L842,1152L931,1130Z" fill="#a54c2a" stroke="#a54c2a"/><path d="M934,1015L931,1130L1076,1007Z" fill="#b14c24" stroke="#b14c24"/><path d="M1076,1007L931,1130L1129,1178Z" fill="#a0421f" stroke="#a0421f"/><path d="M1076,1007L1129,1178L1281,1148Z" fill="#9b3a19" stroke="#9b3a19"/><path d="M1076,1007L1281,1148L1261,950Z" fill="#ae3f18" stroke="#ae3f18"/><path d="M1261,950L1281,1148L1390,1003Z" fill="#aa3914" stroke="#aa3914"/><path d="M1390,1003L1281,1148L1469,1178Z" fill="#912d12" stroke="#912d12"/><path d="M1390,1003L1469,1178L1558,928Z" fill="#983013" stroke="#983013"/><path d="M1558,928L1469,1178L1631,1135Z" fill="#802813" stroke="#802813"/><path d="M1558,928L1631,1135L1721,1085Z" fill="#7d2714" stroke="#7d2714"/><path d="M1558,928L1721,1085L1752,1008Z" fill="#832914" stroke="#832914"/><path d="M1752,1008L1721,1085L1846,1021Z" fill="#6d2114" stroke="#6d2114"/><path d="M1846,1021L1721,1085L1885,1095Z" fill="#5f1c15" stroke="#5f1c15"/><path d="M1846,1021L1885,1095L2025,940Z" fill="#5e1c15" stroke="#5e1c15"/><path d="M2025,940L1885,1095L2082,1078Z" fill="#4e1616" stroke="#4e1616"/><path d="M-22,1150L-77,1332L61,1252Z" fill="#7f7782" stroke="#7f7782"/><path d="M-22,1150L61,1252L107,1072Z" fill="#97787b" stroke="#97787b"/><path d="M107,1072L61,1252L242,1141Z" fill="#987472" stroke="#987472"/><path d="M242,1141L61,1252L221,1280Z" fill="#846d6e" stroke="#846d6e"/><path d="M242,1141L221,1280L413,1228Z" fill="#866761" stroke="#866761"/><path d="M242,1141L413,1228L418,1175Z" fill="#90655a" stroke="#90655a"/><path d="M418,1175L413,1228L471,1119Z" fill="#926153" stroke="#926153"/><path d="M471,1119L413,1228L652,1261Z" fill="#8a594b" stroke="#8a594b"/><path d="M471,1119L652,1261L668,1183Z" fill="#8e5543" stroke="#8e5543"/><path d="M668,1183L652,1261L774,1293Z" fill="#7f4e3a" stroke="#7f4e3a"/><path d="M668,1183L774,1293L842,1152Z" fill="#884a35" stroke="#884a35"/><path d="M842,1152L774,1293L1007,1263Z" fill="#80432c" stroke="#80432c"/><path d="M842,1152L1007,1263L931,1130Z" fill="#8d4128" stroke="#8d4128"/><path d="M931,1130L1007,1263L1129,1178Z" fill="#893a21" stroke="#893a21"/><path d="M1129,1178L1007,1263L1071,1279Z" fill="#7a361d" stroke="#7a361d"/><path d="M1129,1178L1071,1279L1312,1261Z" fill="#763019" stroke="#763019"/><path d="M1129,1178L1312,1261L1281,1148Z" fill="#802c16" stroke="#802c16"/><path d="M1281,1148L1312,1261L1469,1178Z" fill="#7b2513" stroke="#7b2513"/><path d="M1469,1178L1312,1261L1473,1242Z" fill="#6a2213" stroke="#6a2213"/><path d="M1469,1178L1473,1242L1563,1294Z" fill="#5c1e13" stroke="#5c1e13"/><path d="M1469,1178L1563,1294L1631,1135Z" fill="#5e1b13" stroke="#5e1b13"/><path d="M1631,1135L1563,1294L1718,1290Z" fill="#481714" stroke="#481714"/><path d="M1631,1135L1718,1290L1721,1085Z" fill="#541714" stroke="#541714"/><path d="M1721,1085L1718,1290L1884,1245Z" fill="#3e1014" stroke="#3e1014"/><path d="M1721,1085L1884,1245L1885,1095Z" fill="#481315" stroke="#481315"/><path d="M1885,1095L1884,1245L2019,1266Z" fill="#290915" stroke="#290915"/><path d="M1885,1095L2019,1266L2082,1078Z" fill="#300b16" stroke="#300b16"/><path d="M-77,1332L472,1335L221,1280Z" fill="#7f6c6a" stroke="#7f6c6a"/><path d="M-77,1332L221,1280L61,1252Z" fill="#7f7379" stroke="#7f7379"/><path d="M221,1280L472,1335L413,1228Z" fill="#7f6259" stroke="#7f6259"/><path d="M413,1228L472,1335L652,1261Z" fill="#7f594b" stroke="#7f594b"/><path d="M472,1335L1718,1290L1563,1294Z" fill="#722b16" stroke="#722b16"/><path d="M472,1335L1563,1294L1071,1279Z" fill="#7a3920" stroke="#7a3920"/><path d="M472,1335L1071,1279L774,1293Z" fill="#7f4a34" stroke="#7f4a34"/><path d="M472,1335L774,1293L652,1261Z" fill="#7f5240" stroke="#7f5240"/><path d="M774,1293L1071,1279L1007,1263Z" fill="#7c3e26" stroke="#7c3e26"/><path d="M1071,1279L1563,1294L1312,1261Z" fill="#6f2714" stroke="#6f2714"/><path d="M1312,1261L1563,1294L1473,1242Z" fill="#612013" stroke="#612013"/><path d="M1718,1290L2019,1266L1884,1245Z" fill="#260b15" stroke="#260b15"/></g></svg>